
<svg width="136" height="12" fill="none" xmlns="http://www.w3.org/2000/svg"><path d="M3.752 11L.238 1.13h2.226l2.268 6.748L7.126 1.13h1.568l2.324 6.86 2.352-6.86h2.1L11.928 11h-1.764l-2.31-6.552L5.516 11H3.752zm12.742 0V1.13h2.114v3.934c.242-.355.555-.62.938-.798.382-.187.807-.28 1.274-.28 1.614 0 2.422.961 2.422 2.884V11h-2.114V6.968c0-.476-.089-.817-.266-1.022-.178-.215-.439-.322-.784-.322-.448 0-.808.14-1.078.42-.262.28-.392.653-.392 1.12V11h-2.114zm11.896.154c-.812 0-1.512-.145-2.1-.434a3.275 3.275 0 01-1.344-1.246c-.308-.541-.462-1.176-.462-1.904 0-.71.15-1.33.448-1.862a3.298 3.298 0 011.246-1.26c.532-.308 1.143-.462 1.834-.462.998 0 1.792.317 2.38.952.588.625.882 1.475.882 2.548v.532H26.5c.075.541.27.938.588 1.19.326.243.774.364 1.344.364.373 0 .751-.056 1.134-.168a3.177 3.177 0 001.036-.518l.56 1.414c-.345.261-.77.471-1.274.63-.495.15-.994.224-1.498.224zm-.294-5.768c-.448 0-.812.135-1.092.406-.27.27-.439.649-.504 1.134h3.024c-.056-1.027-.532-1.54-1.428-1.54zM32.503 11V4.126h2.072v1.19c.327-.803 1.027-1.246 2.1-1.33l.616-.042.126 1.778-1.19.126c-1.045.103-1.568.635-1.568 1.596V11h-2.156zm9.217.154c-.812 0-1.512-.145-2.1-.434a3.275 3.275 0 01-1.344-1.246c-.308-.541-.462-1.176-.462-1.904 0-.71.15-1.33.448-1.862a3.298 3.298 0 011.246-1.26c.532-.308 1.143-.462 1.834-.462.999 0 1.792.317 2.38.952.588.625.882 1.475.882 2.548v.532H39.83c.075.541.27.938.588 1.19.327.243.775.364 1.344.364.373 0 .751-.056 1.134-.168a3.177 3.177 0 001.036-.518l.56 1.414c-.345.261-.77.471-1.274.63-.495.15-.994.224-1.498.224zm-.294-5.768c-.448 0-.812.135-1.092.406-.27.27-.439.649-.504 1.134h3.024c-.056-1.027-.532-1.54-1.428-1.54zm8.22-2.59V.822h2.282v1.974h-2.282zM49.73 11V4.126h2.114V11H49.73zm3.746 0V4.126h2.072v1.008c.233-.373.546-.658.938-.854.392-.196.83-.294 1.316-.294.812 0 1.419.238 1.82.714.401.467.602 1.19.602 2.17V11H58.11V6.968c0-.476-.089-.817-.266-1.022-.177-.215-.439-.322-.784-.322-.448 0-.807.14-1.078.42-.261.28-.392.653-.392 1.12V11h-2.114zm15.597.154c-1.932 0-2.898-.938-2.898-2.814V5.708h-1.302V4.126h1.302V2.11h2.114v2.016h2.03v1.582h-2.03v2.548c0 .392.088.686.266.882.186.196.48.294.882.294.121 0 .247-.014.378-.042.14-.028.29-.065.448-.112l.308 1.54c-.196.103-.43.182-.7.238-.27.065-.537.098-.798.098zM71.359 11V1.13h2.114v3.934a2.28 2.28 0 01.938-.798c.382-.187.807-.28 1.274-.28 1.614 0 2.422.961 2.422 2.884V11h-2.114V6.968c0-.476-.089-.817-.266-1.022-.178-.215-.439-.322-.784-.322-.448 0-.808.14-1.078.42-.261.28-.392.653-.392 1.12V11h-2.114zm11.896.154c-.812 0-1.512-.145-2.1-.434a3.276 3.276 0 01-1.344-1.246c-.308-.541-.462-1.176-.462-1.904 0-.71.15-1.33.448-1.862a3.299 3.299 0 011.246-1.26c.532-.308 1.143-.462 1.834-.462.999 0 1.792.317 2.38.952.588.625.882 1.475.882 2.548v.532h-4.774c.075.541.27.938.588 1.19.327.243.775.364 1.344.364.373 0 .751-.056 1.134-.168a3.177 3.177 0 001.036-.518l.56 1.414c-.345.261-.77.471-1.274.63-.495.15-.994.224-1.498.224zm-.294-5.768c-.448 0-.812.135-1.092.406-.27.27-.439.649-.504 1.134h3.024c-.056-1.027-.532-1.54-1.428-1.54zM93.211 11l-2.8-6.874h2.142l1.638 4.41 1.638-4.41h1.4l1.638 4.466 1.638-4.466h2.03L99.763 11h-1.792L96.46 7.094 94.99 11h-1.778zm13.253.154c-.738 0-1.382-.145-1.932-.434a3.165 3.165 0 01-1.26-1.246c-.299-.541-.448-1.18-.448-1.918 0-.728.149-1.358.448-1.89a3.05 3.05 0 011.26-1.246c.55-.29 1.194-.434 1.932-.434.737 0 1.376.145 1.918.434.55.29.975.705 1.274 1.246.308.532.462 1.162.462 1.89 0 .737-.154 1.377-.462 1.918a3.157 3.157 0 01-1.274 1.246c-.542.29-1.181.434-1.918.434zm0-1.582c.448 0 .812-.163 1.092-.49.289-.327.434-.835.434-1.526 0-.681-.145-1.18-.434-1.498-.28-.327-.644-.49-1.092-.49-.448 0-.812.163-1.092.49-.28.317-.42.817-.42 1.498 0 .69.14 1.2.42 1.526.28.327.644.49 1.092.49zm4.94 1.428V4.126h2.072v1.19c.326-.803 1.026-1.246 2.1-1.33l.616-.042.126 1.778-1.19.126c-1.046.103-1.568.635-1.568 1.596V11h-2.156zm8.331.154c-.886 0-1.535-.229-1.946-.686-.41-.467-.616-1.157-.616-2.072V1.13h2.114v7.182c0 .747.332 1.12.994 1.12.103 0 .201-.005.294-.014a1.48 1.48 0 00.294-.056L120.841 11a3.951 3.951 0 01-1.106.154zm4.706 0c-.597 0-1.125-.145-1.582-.434a3.003 3.003 0 01-1.05-1.246c-.252-.541-.378-1.18-.378-1.918 0-.737.126-1.372.378-1.904.252-.532.602-.943 1.05-1.232.457-.29.985-.434 1.582-.434.457 0 .877.098 1.26.294.383.196.672.457.868.784V1.13h2.114V11h-2.072V9.964a2.05 2.05 0 01-.868.868 2.616 2.616 0 01-1.302.322zm.63-1.582c.448 0 .812-.163 1.092-.49.289-.327.434-.835.434-1.526 0-.681-.145-1.18-.434-1.498-.28-.327-.644-.49-1.092-.49-.448 0-.812.163-1.092.49-.28.317-.42.817-.42 1.498 0 .69.14 1.2.42 1.526.28.327.644.49 1.092.49zm7.005-1.694V7.22c0-.41.075-.789.224-1.134.149-.355.406-.728.77-1.12.261-.28.443-.518.546-.714a1.39 1.39 0 00.154-.63.732.732 0 00-.294-.616c-.187-.15-.457-.224-.812-.224-.868 0-1.685.313-2.45.938l-.686-1.596a4.57 4.57 0 011.498-.84 5.399 5.399 0 011.792-.308c.616 0 1.157.103 1.624.308.467.196.826.476 1.078.84.261.355.392.77.392 1.246 0 .43-.098.826-.294 1.19-.187.364-.523.747-1.008 1.148-.439.364-.742.681-.91.952-.159.27-.257.532-.294.784l-.07.434h-1.26zM131.572 11V8.76h2.268V11h-2.268z" fill="#fff"/></svg>